<svg xmlns="http://www.w3.org/2000/svg" width="26.821" height="16.814" viewBox="0 0 26.821 16.814">
    <defs>
        <style>
            .cls-1{fill:#fff}
        </style>
    </defs>
    <path id="Icon_awesome-behance" d="M10.8 12.836a3.534 3.534 0 0 0 2.257-3.446c0-3.29-2.45-4.09-5.276-4.09H0v16.5h8c3 0 5.816-1.439 5.816-4.791a3.976 3.976 0 0 0-3.016-4.173zM3.627 8.119h3.4c1.308 0 2.487.368 2.487 1.886 0 1.4-.917 1.965-2.212 1.965H3.627zM7.506 19H3.627v-4.544h3.954c1.6 0 2.608.666 2.608 2.356C10.188 18.479 8.982 19 7.506 19zM24.2 7.793h-6.692V6.168H24.2zM26.821 16c0-3.534-2.067-6.482-5.816-6.482a6 6 0 0 0-6.114 6.323c0 3.72 2.342 6.272 6.114 6.272A5.327 5.327 0 0 0 26.6 18.1h-2.9a2.719 2.719 0 0 1-2.594 1.56 2.7 2.7 0 0 1-2.934-3.041h8.619c.016-.198.03-.407.03-.619zm-8.642-1.453A2.565 2.565 0 0 1 20.9 12a2.446 2.446 0 0 1 2.617 2.552z" class="cls-1" data-name="Icon awesome-behance" transform="translate(0 -5.302)"/>
</svg>
